<svg xmlns="http://www.w3.org/2000/svg" width="400" height="400" viewBox="0 0 400 400">
  <rect width="400" height="400" fill="#FFF5F7"/>
  <defs>
    <radialGradient id="gem1" cx="50%" cy="50%">
      <stop offset="0%" stop-color="#B39BC8" stop-opacity="1"/>
      <stop offset="100%" stop-color="#7A5FA0" stop-opacity="0.6"/>
    </radialGradient>
  </defs>
  <g transform="translate(200,200)">
    <ellipse cx="0" cy="-40" rx="28" ry="42" fill="#F5D5CB" opacity="0.6"/>
    <ellipse cx="0" cy="40" rx="28" ry="42" fill="#F5D5CB" opacity="0.6"/>
    <polygon points="-8,-55 0,-62 8,-55 0,-48" fill="url(#gem1)"/>
    <polygon points="-8,25 0,18 8,25 0,32" fill="url(#gem1)"/>
    <polygon points="-15,-35 -10,-40 -5,-35 -10,-30" fill="url(#gem1)" opacity="0.7"/>
    <polygon points="5,45 10,40 15,45 10,50" fill="url(#gem1)" opacity="0.7"/>
    <circle cx="12" cy="-30" r="2" fill="#CFB53B" opacity="0.8"/>
    <circle cx="-12" cy="50" r="2" fill="#CFB53B" opacity="0.8"/>
    <rect x="-3" y="-78" width="6" height="28" rx="3" fill="#D4749D" opacity="0.4"/>
    <rect x="-3" y="50" width="6" height="28" rx="3" fill="#D4749D" opacity="0.4"/>
  </g>
  <text x="200" y="350" text-anchor="middle" fill="#9CA3AF" font-size="14" font-family="sans-serif">&#23453;&#30707;&#38833;&#23884;</text>
</svg>
