<svg xmlns="http://www.w3.org/2000/svg" width="400" height="400" viewBox="0 0 400 400">
  <rect width="400" height="400" fill="#FFF5F7"/>
  <g transform="translate(200,200)">
    <ellipse cx="0" cy="-40" rx="28" ry="42" fill="#722F37" opacity="0.8"/>
    <ellipse cx="0" cy="40" rx="28" ry="42" fill="#722F37" opacity="0.8"/>
    <path d="M -15 -55 Q -8 -50 -5 -45 Q -12 -48 -18 -52 Z" fill="#CFB53B" opacity="0.7"/>
    <path d="M 8 -30 Q 15 -28 18 -22 Q 10 -25 5 -28 Z" fill="#CFB53B" opacity="0.7"/>
    <path d="M -15 25 Q -8 30 -5 35 Q -12 32 -18 28 Z" fill="#CFB53B" opacity="0.7"/>
    <path d="M 8 50 Q 15 52 18 58 Q 10 55 5 52 Z" fill="#CFB53B" opacity="0.7"/>
    <rect x="-3" y="-78" width="6" height="28" rx="3" fill="#5A2025" opacity="0.5"/>
    <rect x="-3" y="50" width="6" height="28" rx="3" fill="#5A2025" opacity="0.5"/>
  </g>
  <text x="200" y="350" text-anchor="middle" fill="#9CA3AF" font-size="14" font-family="sans-serif">&#22797;&#21476;&#33457;&#32441;</text>
</svg>
